<svg xmlns="http://www.w3.org/2000/svg" viewBox="0 0 22 20" fill="#00adee"><path d="M9.61126 11.0023C9.70048 11.9297 9.74508 12.422 9.00903 13.2234C8.23952 14.0591 6.31017 15.5933 4.33621 16.761C3.49978 17.2533 2.3734 17.8487 1.52582 18.1693C0.890138 18.3982 0.365978 18.5013 0.0983225 18.0319C-0.0689623 17.7227 0.00910394 17.448 0.0983225 17.2076C0.789767 15.2956 2.76373 11.7236 4.0574 9.39947C4.19123 9.1705 4.32505 8.91862 4.45888 8.6782C6.444 5.16342 9.07594 0.858669 9.6001 0.160293C9.66702 0.0687023 9.812 -0.0457857 9.93467 0.0229071C10.035 0.0801511 10.035 0.206088 10.0239 0.297678C10.0239 0.309127 9.99044 0.435064 9.97928 0.492308C9.12055 4.04144 9.22093 7.52187 9.61126 11.0023Z" fill="#00adee"/><path d="M12.8811 11.9276C12.0507 11.54 11.6189 11.3347 11.3199 10.2858C10.9988 9.19132 10.6777 6.71726 10.6777 4.39141C10.6777 3.41091 10.7331 2.11117 10.8881 1.19908C11.0099 0.526408 11.1871 0.00195312 11.7185 0.00195312C12.0507 0.00195312 12.2389 0.218576 12.405 0.423797C13.6672 1.97436 15.6713 5.50873 16.9778 7.80037C17.1107 8.0398 17.2436 8.27922 17.3764 8.53005C19.3362 12.0416 21.6392 16.5109 21.9603 17.309C22.0046 17.423 22.0378 17.6054 21.916 17.6852C21.8053 17.7422 21.7057 17.6738 21.6392 17.6282C21.6282 17.6168 21.5396 17.5256 21.4953 17.4914C18.9487 14.9603 15.9813 13.3071 12.8811 11.9276Z" fill="#00adee"/><path d="M10.4725 14.4284C11.2266 13.8945 11.6205 13.6165 12.6785 13.8612C13.7703 14.1281 16.0438 15.0513 18.0472 16.1858C18.8801 16.6641 19.9606 17.3426 20.6584 17.921C21.1762 18.3548 21.5251 18.7664 21.2662 19.2224C21.0861 19.5227 20.816 19.5783 20.5571 19.6228C18.5875 19.9565 14.5469 19.9787 11.9244 20.001C11.6543 20.001 11.3729 20.001 11.0916 20.001C7.09598 19.9899 2.10996 19.8119 1.25457 19.7007C1.13076 19.6784 0.961936 19.6228 0.973191 19.4782C0.973191 19.3559 1.07449 19.3003 1.15327 19.2669C1.17578 19.2558 1.28833 19.2224 1.34461 19.2113C4.79994 18.2213 7.71501 16.4528 10.4725 14.4284Z" fill="#00adee"/></svg>